{"title":"Shadow.Dancer.2012.VODRiP.XViD 1MPERiUM","uid":8008227,"size":916208085,"categoryP":"video","categoryS":"movies","magnet":"?xt=urn:btih:1f9c73d5e0e48863dc1944298fa08fbd032d2afb&amp;dn=Shadow.Dancer.2012.VODRiP.XViD+1MPERiUM&amp;tr=udp%3A%2F%2Ftracker.openbittorrent.com%3A80&amp;tr=udp%3A%2F%2Fopen.demonii.com%3A1337&amp;tr=udp%3A%2F%2Ftracker.coppersurfer.tk%3A6969&amp;tr=udp%3A%2F%2Fexodus.desync.com%3A6969","seeders":3,"leechers":0,"uploader":"Acesn8s","files":-1,"time":1357943592,"description":"Shadow.Dancer.2012.VODRiP.XViD 1MPERiUM\n\nGeneral\nComplete name : /home/w362b/Downloads/Shadow Dancer 2012 VODRiP XViD 1MPERiUM/shadow dancer.avi\nFormat : AVI\nFormat/Info : Audio Video Interleave\nFile size : 870 MiB\nDuration : 1h 37mn\nOverall bit rate : 1 246 Kbps\nWriting application : Lavf54.0.100\n\nVideo\nID : 0\nFormat : MPEG-4 Visual\nFormat profile : Simple@L1\nFormat settings, BVOP : No\nFormat settings, QPel : No\nFormat settings, GMC : No warppoints\nFormat settings, Matrix : Default (H.263)\nCodec ID : XVID\nCodec ID/Hint : XviD\nDuration : 1h 37mn\nBit rate : 1 106 Kbps\nWidth : 720 pixels\nHeight : 304 pixels\nDisplay aspect ratio : 2.35:1\nFrame rate : 25.000 fps\nColor space : YUV\nChroma subsampling : 4:2:0\nBit depth : 8 bits\nScan type : Progressive\nCompression mode : Lossy\nBits/(Pixel*Frame) : 0.202\nStream size : 772 MiB (89%)\nWriting library : Lavc54.1.100\n\nAudio\nID : 1\nFormat : MPEG Audio\nFormat version : Version 1\nFormat profile : Layer 3\nCodec ID : 55\nCodec ID/Hint : MP3\nDuration : 1h 37mn\nBit rate mode : Constant\nBit rate : 128 Kbps\nChannel(s) : 2 channels\nSampling rate : 44.1 KHz\nCompression mode : Lossy\nStream size : 89.4 MiB (10%)\nAlignment : Aligned on interleaves\nInterleave, duration : 26 ms (0.65 video frame)\n\nCast: Clive Owen, Andrea Riseborough, Gillian Anderson\n\nPlot: Set in 1990s Belfast, an active member of the IRA becomes an informant for MI5 in order to protect her son's welfare. \n\nIMDb: http://www.imdb.com/title/tt1770734/\n\nScreens: \n &lt;a href=&quot;\nhttp://www.shotpix.com/images/00865029347892047804.png&quot; rel=&quot;nofollow&quot; target=&quot;_NEW&quot;&gt;\nhttp://www.shotpix.com/images/00865029347892047804.png&lt;/a&gt;\n &lt;a href=&quot;\nhttp://www.shotpix.com/images/00067398907274579153.png&quot; rel=&quot;nofollow&quot; target=&quot;_NEW&quot;&gt;\nhttp://www.shotpix.com/images/00067398907274579153.png&lt;/a&gt;\n &lt;a href=&quot;\nhttp://www.shotpix.com/images/81993661425217505062.png&quot; rel=&quot;nofollow&quot; target=&quot;_NEW&quot;&gt;\nhttp://www.shotpix.com/images/81993661425217505062.png&lt;/a&gt;","torrent":{"xt":"urn:btih:1f9c73d5e0e48863dc1944298fa08fbd032d2afb","amp;dn":"Shadow.Dancer.2012.VODRiP.XViD+1MPERiUM","amp;tr":["udp%3A%2F%2Ftracker.openbittorrent.com%3A80","udp%3A%2F%2Fopen.demonii.com%3A1337","udp%3A%2F%2Ftracker.coppersurfer.tk%3A6969","udp%3A%2F%2Fexodus.desync.com%3A6969"],"infoHash":"1f9c73d5e0e48863dc1944298fa08fbd032d2afb","infoHashBuffer":{"type":"Buffer","data":[31,156,115,213,224,228,136,99,220,25,68,41,143,160,143,189,3,45,42,251]},"announce":[],"urlList":[]}}